<svg width="350" height="41" viewBox="0 0 350 41" fill="none" xmlns="http://www.w3.org/2000/svg">
<path d="M0 27.9176H5.23522C5.52565 34.3729 8.92891 38.5919 14.8344 38.5919C19.3025 38.5919 22.2292 36.1991 22.2739 31.831C22.2739 27.4108 19.0568 25.4802 12.0492 22.0737C5.61501 18.8684 1.43726 16.2297 1.43726 10.4304C1.39258 4.17649 6.38205 0.725266 12.9652 0.725266C19.8759 0.725266 25.3495 4.58646 26.6006 11.7573H21.4175C20.7919 6.52452 17.7685 2.8124 12.8684 2.8124C8.35549 2.8124 6.09906 5.10079 6.09906 8.76073C6.09906 12.8754 9.36084 14.7091 15.2216 17.6087C22.2292 21.1643 26.9357 23.7061 26.9357 30.2135C26.9357 36.7209 21.8494 40.6864 14.6929 40.6864C6.82142 40.6864 0.863848 36.2662 0 27.9251V27.9176Z" fill="white"/>
<path d="M33.4146 31.9801V17.0869H28.5667V14.9998H33.4146V8.39548L38.0243 4.63119H38.3147V14.9998H46.1415V17.0869H38.3147V31.8758C38.3147 36.1469 39.8488 37.3172 42.0605 37.3172C44.2723 37.3172 46 35.8935 47.1468 33.2473L47.6756 34.671C46.1862 38.331 43.4531 40.3659 40.1839 40.3659C36.4381 40.3659 33.4146 38.3831 33.4146 31.9801Z" fill="white"/>
<path d="M49.5 27.6642C49.5 19.3753 54.6831 14.1426 61.4524 14.1426C68.2217 14.1426 72.5409 19.025 72.6377 25.7858H54.2959V26.5983C54.2959 32.8522 56.8427 37.7272 62.3609 37.7272C66.9706 37.7272 69.5621 34.5219 70.6643 30.1017H72.7271C71.6249 36.1991 67.7823 40.7237 61.1545 40.7237C54.5267 40.7237 49.4851 35.7966 49.4851 27.6642H49.5ZM67.8419 23.803C67.6036 19.3306 65.444 16.0284 61.4077 16.0284C57.6172 16.0284 55.1671 19.1293 54.4969 23.803H67.8419Z" fill="white"/>
<path d="M76.5325 27.6642C76.5325 19.3753 81.7156 14.1426 88.4848 14.1426C95.2541 14.1426 99.5734 19.025 99.6702 25.7858H81.3283V26.5983C81.3283 32.8522 83.8752 37.7272 89.3934 37.7272C94.0031 37.7272 96.5946 34.5219 97.6967 30.1017H99.7596C98.6574 36.1991 94.8148 40.7237 88.187 40.7237C81.5592 40.7237 76.5176 35.7966 76.5176 27.6642H76.5325ZM94.8743 23.803C94.636 19.3306 92.4764 16.0284 88.4402 16.0284C84.6497 16.0284 82.1996 19.1293 81.5294 23.803H94.8743Z" fill="white"/>
<path d="M102.984 39.6056C105.241 38.5919 105.576 36.9594 105.576 33.046V7.02394C105.576 3.66962 105.144 2.35025 103.267 1.38123V1.17997L110.856 0.0618591L110.9 0.263119C110.565 1.53031 110.468 2.64842 110.468 7.02394V33.046C110.468 36.9594 110.759 38.5844 112.963 39.6056V39.859H102.977V39.6056H102.984Z" fill="white"/>
<path d="M129.153 20.7991C129.153 8.85766 136.979 0.874374 147.971 0.874374C156.52 0.874374 163.237 5.54806 165.352 14.6495H160.072C158.68 7.6352 154.405 3.00623 148.023 3.00623C139.817 3.00623 134.872 10.6317 134.872 19.9344C134.872 29.237 139.526 37.0116 148.798 37.0116C156.818 37.0116 161.904 31.6223 163.252 23.3409H165.65C164.213 33.7617 157.727 40.5746 147.547 40.5746C135.974 40.5746 129.16 31.8832 129.16 20.7991H129.153Z" fill="white"/>
<path d="M168.763 39.6056C170.878 38.5919 171.213 36.9594 171.213 33.046V21.8128C171.213 17.646 170.878 16.2744 168.763 15.2532V14.9998H177.022C176.255 16.1179 176.113 17.646 176.113 21.8128V22.7296C176.933 18.9132 180.194 14.4407 186.003 14.396V18.8684C178.943 18.5106 176.158 22.2749 176.113 26.7474V33.3517C176.113 37.1159 176.448 38.6366 178.899 39.6578V39.859H168.771V39.6056H168.763Z" fill="white"/>
<path d="M187.731 27.6642C187.731 19.3753 192.914 14.1425 199.683 14.1425C206.452 14.1425 210.772 19.0249 210.868 25.7858H192.527V26.5983C192.527 32.8522 195.073 37.7272 200.592 37.7272C205.201 37.7272 207.793 34.5219 208.895 30.1017H210.958C209.856 36.1991 206.013 40.7237 199.385 40.7237C192.757 40.7237 187.716 35.7966 187.716 27.6642H187.731ZM206.073 23.803C205.834 19.3306 203.675 16.0284 199.638 16.0284C195.848 16.0284 193.398 19.1293 192.728 23.803H206.073ZM203.243 1.44084H207.517L199.743 10.4379H198.492L203.243 1.44084Z" fill="white"/>
<path d="M214.421 34.0151C214.421 29.4383 217.734 27.709 223.685 25.9349C228.242 24.5634 230.454 23.8999 230.499 20.4487C230.543 17.5491 228.868 16.0285 225.986 16.0285C222.962 16.0285 219.842 17.9591 219.842 23.0949H215.329C215.664 17.0497 221.041 14.15 226.47 14.15C231.37 14.15 235.302 16.3341 235.302 22.5359V33.8735C235.302 36.6166 236.069 37.6825 237.461 37.6825C238.184 37.6825 238.757 37.4812 239.286 36.9744V38.5024C238.228 39.6727 236.985 40.3287 235.25 40.3287C232.606 40.3287 230.543 38.5024 230.543 34.0747V32.9566C229.344 37.0713 226.269 40.5299 221.324 40.5299C217.288 40.5299 214.413 38.3459 214.413 34.0226L214.421 34.0151ZM223.014 37.3694C227.482 37.3694 230.551 33.0982 230.551 27.2021V24.459C229.828 25.9349 227.907 26.5461 224.98 27.5599C221.19 28.8271 219.12 30.0495 219.12 33.2548C219.12 36.1022 220.899 37.3694 223.007 37.3694H223.014Z" fill="white"/>
<path d="M243.181 31.9801V17.0869H238.333V14.9998H243.181V8.39548L247.79 4.63119H248.081V14.9998H255.908V17.0869H248.081V31.8758C248.081 36.1469 249.615 37.3172 251.827 37.3172C254.038 37.3172 255.766 35.8935 256.913 33.2473L257.442 34.671C255.952 38.331 253.219 40.3659 249.95 40.3659C246.204 40.3659 243.181 38.3831 243.181 31.9801Z" fill="white"/>
<path d="M259.072 39.6056C261.187 38.5918 261.522 36.9594 261.522 33.046V21.7084C261.522 17.5416 261.329 16.1701 259.311 15.3054V15.1041L266.415 14.6494V33.0535C266.415 36.9669 266.75 38.5918 268.91 39.6131V39.8665H259.065V39.6131L259.072 39.6056ZM261.426 3.0062H266.415V8.75328H261.426V3.01366V3.0062Z" fill="white"/>
<path d="M272.373 27.4108C272.373 19.4275 277.273 14.1426 284.66 14.1426C292.048 14.1426 297 19.4275 297 27.4108C297 35.3941 292.1 40.7312 284.66 40.7312C277.221 40.7312 272.373 35.3941 272.373 27.4108ZM284.712 38.8006C289.322 38.8006 291.958 34.5294 291.958 27.4108C291.958 20.2922 289.315 16.0732 284.712 16.0732C280.11 16.0732 277.37 20.2922 277.37 27.4108C277.37 34.5294 280.013 38.8006 284.712 38.8006Z" fill="white"/>
<path d="M300.462 39.6056C302.622 38.5919 302.912 36.9594 302.912 33.046V21.8128C302.912 17.646 302.622 16.2744 300.515 15.2532V14.9998H308.773C308.051 16.0135 307.865 17.3925 307.813 20.7469C309.302 17.0869 312.37 14.1426 316.89 14.1426C321.411 14.1426 324.33 16.8335 324.33 23.5496V33.0535C324.33 36.9669 324.62 38.5919 326.728 39.6131V39.8665H317.226V39.6131C319.192 38.5993 319.437 36.9669 319.437 33.0535V23.6018C319.437 18.9728 317.851 16.9975 314.686 16.9975C311.089 16.9975 308.639 20.0984 307.82 23.7583V33.061C307.82 36.9743 308.11 38.5993 310.173 39.6205V39.874H300.477V39.6205L300.462 39.6056Z" fill="white"/>
<path d="M329.312 31.682H333.728C334.116 36.0501 336.417 38.8006 340.639 38.8006C343.618 38.8006 345.636 37.3247 345.636 34.835C345.636 32.092 343.476 31.1229 338.673 29.088C334.354 27.3064 330.653 25.5846 330.653 21.06C330.653 16.7888 334.302 14.15 339.582 14.15C344.862 14.15 348.846 16.9453 349.71 21.619H345.294C344.862 18.369 343.082 16.0806 339.388 16.0806C336.648 16.0806 334.875 17.4522 334.875 19.6362C334.875 22.3271 337.273 23.4974 341.548 25.2268C346.448 27.2095 350 29.0358 350 33.5082C350 38.2863 345.874 40.7237 340.587 40.7237C334.153 40.7237 329.975 37.2203 329.305 31.6745L329.312 31.682Z" fill="white"/>
</svg>
