<svg width="717" height="900" viewBox="0 0 717 900" fill="none" xmlns="http://www.w3.org/2000/svg">
<path d="M728.808 581.284C717.248 556.514 701.835 535.046 683.12 516.881C664.404 498.716 642.385 482.752 617.615 470.092C592.844 457.431 566.973 445.872 540.551 436.514C514.129 427.156 487.707 418.348 461.285 410.092C434.863 402.385 410.092 394.129 387.523 385.872C367.707 379.266 348.441 371.009 329.175 361.651C310.459 352.294 293.945 340.734 279.083 328.073C264.771 315.413 252.661 299.45 243.854 281.284C235.046 263.119 230.642 241.651 230.642 217.431C230.642 187.706 237.248 161.835 249.909 141.468C260.918 123.853 274.679 108.991 291.743 97.431C300.551 92.4769 309.358 87.5228 318.716 83.6695C356.147 67.1558 397.982 58.8991 443.671 58.8991C470.093 58.8991 498.165 61.6511 527.34 67.7062C546.055 71.5594 565.322 76.5139 584.588 83.1194L718.9 309.358H720V45.6882C720 45.6882 718.899 45.6881 718.349 45.1376C718.349 45.1376 717.799 45.1376 717.249 45.1376C683.671 31.3761 645.138 20.3667 601.652 12.6603C557.065 4.40343 510.826 0 462.386 0C416.698 0 372.111 4.40355 329.175 13.2109C309.909 17.0641 291.743 22.0185 274.679 28.0735C224.037 43.4864 179.45 68.257 139.817 100.734C97.4317 135.963 63.3029 182.202 37.9818 239.449C12.6607 296.697 0 366.055 0 448.624C0 536.147 12.6607 608.807 37.9818 666.606C63.3029 724.404 97.4314 770.642 140.367 805.321C183.303 840 232.294 864.22 287.891 878.532C343.487 892.844 400.734 900 459.633 900C504.771 900 568.074 884.587 608.808 866.973C615.414 864.22 622.019 860.918 628.074 857.615C660.551 841.101 687.523 818.532 708.991 789.908C732.661 758.532 744.772 718.348 744.772 669.358C744.772 636.33 738.716 607.156 727.156 582.385L728.808 581.284ZM261.468 445.872C290.642 457.982 319.817 468.44 348.992 477.798C374.863 487.156 403.487 495.963 435.964 505.321C467.891 514.679 498.166 526.239 526.789 541.101C554.863 555.413 579.083 573.578 598.349 595.596C618.166 617.064 628.074 645.688 629.175 680.367C629.725 708.44 624.22 732.11 611.56 751.376C598.899 770.642 582.386 786.055 562.019 797.615C541.652 809.174 517.982 817.431 491.56 822.385C465.138 827.34 437.615 830.092 410.643 830.092C390.826 830.092 371.56 828.991 352.844 827.339C303.303 811.376 260.918 783.303 226.239 742.018C170.092 675.413 141.469 578.532 140.918 450.826C140.918 419.45 142.569 390.275 145.872 362.752C156.881 377.615 169.542 390.275 184.404 401.835C207.523 419.45 233.395 434.863 262.569 446.973L261.468 445.872Z" fill="#999"/>
</svg>
